<?xml version="1.0" standalone="no"?>
<!DOCTYPE svg PUBLIC "-//W3C//DTD SVG 20010904//EN"
 "http://www.w3.org/TR/2001/REC-SVG-20010904/DTD/svg10.dtd">
<svg version="1.0" xmlns="http://www.w3.org/2000/svg"
 width="637.000000pt" height="350.000000pt" viewBox="0 0 637.000000 350.000000"
 preserveAspectRatio="xMidYMid meet">

<g transform="translate(0.000000,350.000000) scale(0.100000,-0.100000)"
fill="#000000" stroke="none">
<path d="M3670 2170 l0 -1100 109 0 109 0 15 38 c8 20 123 318 256 663 l241
625 0 437 0 437 -140 0 -140 0 0 -418 0 -417 -76 -265 c-41 -146 -80 -269 -85
-275 -5 -5 -9 256 -9 683 l0 692 -140 0 -140 0 0 -1100z"/>
<path d="M4550 2170 l0 -1100 140 0 140 0 0 1100 0 1100 -140 0 -140 0 0
-1100z"/>
<path d="M5040 2170 l0 -1100 140 0 140 0 0 825 c0 454 3 825 8 825 4 0 42
-87 85 -193 l77 -192 0 -633 0 -632 140 0 140 0 0 1100 0 1100 -140 0 -140 0
0 -267 c0 -150 -4 -263 -9 -257 -4 5 -55 125 -112 266 l-104 258 -112 0 -113
0 0 -1100z"/>
<path d="M5970 2170 l0 -1100 140 0 140 0 0 1100 0 1100 -140 0 -140 0 0
-1100z"/>
<path d="M2417 2582 c-174 -174 -317 -322 -317 -327 0 -6 144 -154 320 -330
l320 -320 325 325 325 325 -322 322 c-178 178 -325 323 -328 323 -3 0 -148
-143 -323 -318z"/>
<path d="M325 1880 l-320 -320 323 -323 322 -322 322 322 323 323 -320 320
c-176 176 -322 320 -325 320 -3 0 -149 -144 -325 -320z"/>
<path d="M1725 1880 l-320 -320 323 -323 322 -322 322 322 323 323 -320 320
c-176 176 -322 320 -325 320 -3 0 -149 -144 -325 -320z"/>
<path d="M3680 525 l0 -365 45 0 45 0 0 181 0 180 23 -3 c22 -3 22 -5 25 -180
l2 -178 51 0 50 0 -5 198 c-2 108 -4 204 -5 212 0 8 2 66 5 128 9 174 -5 192
-151 192 l-85 0 0 -365z m135 180 c0 -86 -1 -90 -22 -93 -22 -3 -23 -1 -23 93
0 94 1 96 23 93 21 -3 22 -7 22 -93z"/>
<path d="M4040 883 c-8 -3 -23 -12 -32 -21 -17 -14 -18 -44 -18 -359 l0 -343
45 0 45 0 0 180 0 180 25 0 25 0 0 -180 0 -180 50 0 51 0 -3 341 -3 341 -28
24 c-23 20 -39 24 -85 23 -31 0 -64 -3 -72 -6z m90 -178 c0 -95 0 -95 -25 -95
-25 0 -25 1 -25 88 0 94 3 102 32 102 16 0 18 -10 18 -95z"/>
<path d="M4300 526 l0 -366 45 0 45 0 1 213 c1 158 3 203 11 177 15 -54 24
-56 41 -8 15 41 15 34 16 -169 l1 -213 45 0 45 0 0 365 0 365 -34 0 -34 0 -28
-115 c-15 -63 -30 -113 -32 -110 -2 2 -16 52 -31 112 -27 108 -27 108 -59 111
l-32 3 0 -365z"/>
<path d="M4680 883 c-8 -3 -23 -12 -32 -21 -16 -14 -18 -43 -18 -337 0 -378
-6 -357 110 -363 66 -4 71 -3 100 26 l30 30 0 307 0 307 -29 29 c-26 26 -36
29 -88 28 -32 0 -65 -3 -73 -6z m90 -358 l0 -275 -25 0 -25 0 0 275 0 275 25
0 25 0 0 -275z"/>
<path d="M4975 879 c-41 -24 -45 -38 -45 -175 0 -157 7 -173 83 -181 26 -3 51
-11 57 -18 7 -8 10 -59 8 -131 l-3 -119 -25 0 c-23 0 -25 4 -28 58 l-3 57 -44
0 -45 0 0 -79 c0 -113 12 -126 120 -126 120 0 120 0 120 220 0 203 -4 213 -83
222 -60 7 -69 22 -65 116 3 69 4 72 28 72 23 0 25 -4 28 -47 l3 -48 45 0 44 0
0 69 c0 97 -15 114 -106 118 -40 2 -78 -1 -89 -8z"/>
</g>
</svg>
